<svg xmlns="http://www.w3.org/2000/svg" width="80" height="80" viewBox="0 0 80 80">
  <rect width="80" height="80" rx="4" fill="#f0f9ff"/>
  <circle cx="40" cy="25" r="12" fill="#3b82f6"/>
  <path d="M26 50c0-6 4-10 8-10s8 4 8 10c0 2-1 4-4 4h-8c-3 0-4-2-4-4z" fill="#3b82f6"/>
  <path d="M28 40c0-2 2-4 4-4h16c2 0 4 2 4 4s-2 4-4 4h-16c-2 0-4-2-4-4z" fill="#3b82f6"/>
  <path d="M32 20c0-1.1 0.9-2 2-2h12c1.1 0 2 0.9 2 2s-0.9 2-2 2h-12c-1.1 0-2-0.9-2-2z" fill="#3b82f6"/>
  <path d="M36 58c0-1 0.8-2 2-2h4c1.2 0 2 0.8 2 2s-0.8 2-2 2h-4c-1.2 0-2-0.8-2-2z" fill="#3b82f6"/>
  <path d="M34 64c0-1 0.8-2 2-2h8c1.2 0 2 0.8 2 2s-0.8 2-2 2h-8c-1.2 0-2-0.8-2-2z" fill="#3b82f6"/>
  <path d="M32 70c0-1 0.8-2 2-2h12c1.2 0 2 0.8 2 2s-0.8 2-2 2h-12c-1.2 0-2-0.8-2-2z" fill="#3b82f6"/>
</svg>