<svg xmlns="http://www.w3.org/2000/svg" width="200" height="80" viewBox="0 0 200 80">
  <!-- 背景 -->
  <rect x="0" y="0" width="200" height="80" fill="white"/>
  
  <!-- 绿色十字 -->
  <path d="M50 20 L70 20 L70 40 L90 40 L90 60 L70 60 L70 80 L50 80 L50 60 L30 60 L30 40 L50 40 Z" fill="#28a745" opacity="0.7"/>
  <rect x="45" y="35" width="10" height="10" fill="#28a745"/>
  
  <!-- 蓝色H字母 -->
  <path d="M110 20 L130 20 L130 60 L150 60 L150 20 L170 20 L170 80 L150 80 L150 40 L130 40 L130 80 L110 80 Z" fill="#007bff"/>
  
  <!-- 乐之药文字 -->
  <text x="180" y="55" font-family="'Microsoft YaHei', sans-serif" font-size="24" font-weight="bold" fill="#007bff" text-anchor="middle">乐之药</text>
  
  <!-- 网址 -->
  <text x="180" y="75" font-family="'Microsoft YaHei', sans-serif" font-size="12" fill="#6c757d" text-anchor="middle">www.51leyao.com</text>
  
  <!-- 绿色下划线 -->
  <path d="M160 78 Q180 82 200 78" stroke="#28a745" stroke-width="2" fill="none"/>
</svg>